<svg width="64" height="64" viewBox="0 0 64 64" xmlns="http://www.w3.org/2000/svg">
<path d="M48 0H16C7.16347 0 0 7.16347 0 16V48C0 56.8368 7.16347 64 16 64H48C56.8368 64 64 56.8368 64 48V16C64 7.16347 56.8368 0 48 0Z" fill="white" fill-opacity="0.3"/>
<path d="M38.6798 15.1771C48.0146 15.1771 55.5813 22.7091 55.5813 31.9996C55.5813 41.2912 48.0146 48.8229 38.6798 48.8229C29.3453 48.8229 21.7783 41.2912 21.7783 31.9996C21.7783 22.7091 29.3453 15.1771 38.6798 15.1771ZM38.6791 36.2057C41.0127 36.2057 42.9052 34.3226 42.9052 31.9996C42.9052 29.6774 41.0127 27.7943 38.6791 27.7943C36.3459 27.7943 34.4545 29.6774 34.4545 31.9996C34.4545 34.3226 36.3459 36.2057 38.6791 36.2057ZM13.225 36.2057C10.8918 36.2057 9 34.3226 9 31.9993C9 29.6774 10.8918 27.7943 13.225 27.7943C15.5583 27.7943 17.4507 29.6774 17.4507 31.9993C17.4507 34.3226 15.5583 36.2057 13.225 36.2057Z" fill="#DA3743"/>
</svg>
